HIERARCHY
ROOT pelvis
{
  OFFSET 0 100 0
  CHANNELS 6 Xposition Yposition Zposition Zrotation Xrotation Yrotation
  JOINT pelvis_right_femur
  {
    OFFSET -10.78128 -3.44521 -0.5502486
    CHANNELS 3 Zrotation Xrotation Yrotation
    JOINT right_femur_tibia
    {
      OFFSET -0.8047443 -44.0398 -0.1307829
      CHANNELS 3 Zrotation Xrotation Yrotation
      JOINT right_tibia_foot
      {
        OFFSET 3.006224 -47.83518 -5
        CHANNELS 3 Zrotation Xrotation Yrotation
        End Site
        {
          OFFSET 0 -5 15
        }
      }
    }
  }
  JOINT pelvis_left_femur
  {
    OFFSET 10.78128 -3.44521 -0.5502486
    CHANNELS 3 Zrotation Xrotation Yrotation
    JOINT left_femur_tibia
    {
      OFFSET 0.8047443 -44.0398 -0.1307829
      CHANNELS 3 Zrotation Xrotation Yrotation
      JOINT left_tibia_foot
      {
        OFFSET -4.370144 -48.10324 -4.275266
        CHANNELS 3 Zrotation Xrotation Yrotation
        End Site
        {
          OFFSET 0 -5 15
        }
      }
    }
  }
  JOINT pelvis_spine1
  {
    OFFSET 0 6.468898 -3.129235
    CHANNELS 3 Zrotation Xrotation Yrotation
    JOINT spine1
    {
      OFFSET 0 23.15396 4.99043
      CHANNELS 3 Zrotation Xrotation Yrotation
      JOINT spine2
      {
        OFFSET 0 20.79997 -5.064912
        CHANNELS 3 Zrotation Xrotation Yrotation
        JOINT neck
        {
          OFFSET 0 14.38658 9.616178
          CHANNELS 3 Zrotation Xrotation Yrotation
          End Site
          {
            OFFSET 0 20 0
          }
        }
      }
      JOINT right_manubrium
      {
        OFFSET -5.722621 16.35077 3.967754
        CHANNELS 3 Zrotation Xrotation Yrotation
        JOINT right_clavicle
        {
          OFFSET -13.16364 1.694482 -4.693211
          CHANNELS 3 Zrotation Xrotation Yrotation
          JOINT right_humerus
          {
            OFFSET -28.5034 -0.3100689 -2.792744
            CHANNELS 3 Zrotation Xrotation Yrotation
            JOINT right_radius
            {
              OFFSET -25.15693 0.02248979 -1.271978
              CHANNELS 3 Zrotation Xrotation Yrotation
              End Site
              {
                OFFSET -15 0 0
              }
            }
          }
        }
      }
      JOINT left_manubrium
      {
        OFFSET 5.722621 16.35077 3.967754
        CHANNELS 3 Zrotation Xrotation Yrotation
        JOINT left_clavicle
        {
          OFFSET 13.16364 1.694482 -4.693211
          CHANNELS 3 Zrotation Xrotation Yrotation
          JOINT left_humerus
          {
            OFFSET 29.39168 -1.063119 -2.237045
            CHANNELS 3 Zrotation Xrotation Yrotation
            JOINT left_radius
            {
              OFFSET 24.59957 -0.9528479 0.9047498
              CHANNELS 3 Zrotation Xrotation Yrotation
              End Site
              {
                OFFSET 15 -0 -0
              }
            }
          }
        }
      }
    }
  }
}
MOTION
Frames: 9
Frame Time: 0.0416666666667
0 103.5113 0 1.06798 -3.677454 0.05577673 1.819692 -12.07552 6.77564 -0 40.87146 -0 -6.715177 -15.86152 -3.409069 -6.193521 12.30708 -24.22916 -0 6.336464 -0 0.5371272 -18.72301 23.63337 -1.400021 -2.582158 4.88694 0.2316594 6.194599 -7.292246 1.422433 22.11238 8.14462 5.207674 -23.48839 8.890553 4.769259 -19.21686 9.794234 87.64553 37.1581 -21.88321 -0 0 17.14084 -6.742247 6.861439 3.095908 7.529626 -21.25498 -0.9377166 -100.016 42.37227 28.0074 0 0 -26.10988 -8.325717 17.64712 26.20156
0.1698949 103.6527 1.27794 0.3168708 -2.956366 -0.06646401 2.822588 -14.17241 8.327423 -0 42.51611 -0 -6.540187 -15.35423 -4.248672 -5.720826 11.96391 -24.26665 -0 6.765435 -0 -1.046642 -19.66202 23.52883 -1.323422 -2.56766 5.05683 0.07974715 6.289009 -7.195583 1.429966 22.06437 8.255012 5.354634 -23.3212 8.890564 4.788377 -19.24694 9.80378 87.55446 37.41942 -21.83136 -0 0 17.14855 -7.204674 7.226187 3.093116 7.703517 -21.43467 -0.962973 -99.89546 42.16895 27.94049 0 0 -26.49703 -8.012599 17.77069 25.94021
0.3590973 103.6286 2.829826 -0.1165639 -1.723639 -0.139913 3.7155 -18.29754 7.965167 -0 38.75924 -0 -6.562027 -13.42403 -4.161267 -5.586799 11.912 -22.93221 -0 6.280365 -0 -0.5482049 -20.73698 22.69149 -1.411556 -1.917724 4.089362 0.9027192 6.344719 -7.532582 1.288342 22.50204 7.997961 4.825556 -23.74372 8.76498 4.850625 -18.44507 10.10821 88.39063 36.98055 -22.52122 -0 0 15.28263 -7.473912 7.650037 3.532736 6.510137 -20.845 -1.617351 -98.70115 41.44163 26.54739 0 0 -25.10974 -8.458504 17.56856 26.15338
0.5581885 103.4386 4.616172 -0.3972283 -0.7256423 -0.1705519 4.354591 -21.56068 7.704885 -0 35.51025 -0 -6.469773 -12.04339 -4.130647 -5.50918 11.9665 -21.87747 -0 5.882016 -0 -0.1077601 -21.5805 21.99428 -1.413712 -1.390712 3.302094 1.52897 6.395804 -7.818622 1.180663 22.84371 7.884604 4.489056 -24.03937 8.710862 4.901933 -17.7181 10.33323 89.25003 36.75145 -23.37416 -0 0 13.55271 -7.774349 8.12714 3.749745 5.682931 -20.53878 -2.184604 -97.62438 40.86024 25.19919 0 0 -24.409 -8.690403 17.56007 26.21641
0.7645641 103.0012 6.777652 -0.4562966 0.4677443 -0.131124 4.786245 -25.20006 6.897614 -0 30.2594 -0 -6.263313 -10.4404 -3.843139 -5.612323 12.27855 -20.51506 -0 5.406463 -0 1.037434 -22.42049 21.15123 -1.455915 -0.9612633 2.73346 2.06197 6.484173 -8.025775 1.072569 23.04995 7.753328 4.183292 -24.21967 8.589714 5.027893 -17.14725 10.56909 89.62908 36.5759 -23.72725 -0 0 12.28651 -8.199896 8.620322 4.200831 4.947387 -20.19107 -2.623464 -96.62939 40.04045 24.10011 0 0 -23.58986 -8.734512 17.29364 26.07899
0.9699088 102.3265 9.365304 -0.4428868 1.60476 -0.01431351 5.082135 -28.52788 6.014702 -0 24.94886 -0 -6.038596 -8.814257 -3.491685 -5.759213 12.75465 -19.22736 -0 5.321831 -0 2.156687 -23.10128 20.32354 -1.495089 -0.6123166 2.310616 2.495176 6.588354 -8.186041 0.9750494 23.17327 7.651767 3.943421 -24.31883 8.463271 5.171894 -16.67353 10.78316 89.82415 36.47065 -23.91969 -0 0 11.27078 -8.675996 9.113663 4.679879 4.357556 -19.91167 -2.980083 -95.72179 39.17955 23.13639 0 0 -22.92038 -8.644066 16.97653 25.81617
1.164553 101.4642 12.46892 -0.4412141 2.717728 0.2015583 5.36261 -31.64608 5.110394 -0 19.78158 -0 -5.866211 -6.970967 -3.049443 -5.902935 13.40286 -18.0044 -0 5.95379 -0 3.109178 -23.54189 19.44601 -1.54168 -0.349762 2.046029 2.823456 6.707801 -8.291695 0.889649 23.21648 7.565454 3.759182 -24.34543 8.327071 5.324198 -16.32607 10.97491 89.80413 36.40999 -23.89554 -0 0 10.56804 -9.180702 9.567209 5.193793 3.902709 -19.67966 -3.241055 -94.94711 38.30209 22.37571 0 0 -22.34475 -8.442714 16.59433 25.45172
1.338757 100.5145 16.15777 -0.5567784 3.629526 0.5345916 5.711302 -34.12807 4.307276 -0 15.70459 -0 -5.887985 -4.955617 -2.520595 -5.939552 14.13532 -16.97548 -0 7.691251 -0 3.442685 -23.53395 18.4353 -1.589301 -0.1599246 1.917225 3.049847 6.84101 -8.346924 0.8179127 23.20104 7.496669 3.628811 -24.30938 8.189716 5.469271 -16.0927 11.14185 89.63054 36.38792 -23.70858 -0 0 10.13152 -9.715039 9.985511 5.709992 3.57321 -19.50169 -3.422631 -94.30202 37.44707 21.799 0 0 -21.87727 -8.160045 16.19081 25.02042
1.48393 99.62361 20.49482 -0.8813404 4.199599 0.9901213 6.226551 -35.59785 3.661761 -0 13.29194 -0 -6.225872 -2.884362 -1.896405 -5.759563 14.8337 -16.17163 -0 10.93449 -0 2.7528 -22.83755 17.11024 -1.636161 -0.03408658 1.914744 3.174181 6.988084 -8.350236 0.7609353 23.14083 7.442857 3.548396 -24.21483 8.053138 5.59764 -15.97277 11.28364 89.32573 36.39768 -23.36844 -0 0 9.950404 -10.28652 10.37174 6.21782 3.358107 -19.37268 -3.531907 -93.7912 36.63698 21.41102 0 0 -21.50396 -7.820675 15.78674 24.55174
